<svg xmlns="http://www.w3.org/2000/svg" viewBox="0 0 240 300" fill="none" stroke="currentColor" stroke-width="1.6" stroke-linecap="round" stroke-linejoin="round" aria-label="Angela Merkel">
  <!-- Hair: short bob, side-parted -->
  <path d="M68 96 Q56 78 64 58 Q76 38 100 32 Q120 24 140 32 Q164 38 178 58 Q188 78 180 100"/>
  <path d="M82 64 Q92 50 110 48"/>
  <path d="M134 46 Q156 50 166 66"/>
  <!-- Hairline asymmetric fringe across forehead -->
  <path d="M78 92 Q98 80 124 84 Q150 80 174 96"/>
  <path d="M78 92 Q92 100 116 96 Q142 92 174 96"/>
  <!-- Side hair flowing past ears -->
  <path d="M68 96 Q66 130 76 158"/>
  <path d="M180 100 Q186 132 178 160"/>
  <!-- Face contour: broad, calm -->
  <path d="M76 108 Q74 138 84 168 Q96 196 116 208 Q124 212 132 208 Q156 196 168 168 Q176 138 174 108"/>
  <!-- Eyebrows: level, understated -->
  <path d="M92 134 Q102 130 114 134"/>
  <path d="M134 134 Q146 130 156 134"/>
  <!-- Eyes: steady gaze -->
  <path d="M94 146 Q102 144 112 146"/>
  <path d="M136 146 Q144 144 154 146"/>
  <path d="M99 147 L107 147"/>
  <path d="M141 147 L149 147"/>
  <!-- Nose: simple ridge -->
  <path d="M122 150 Q120 168 116 178 Q120 184 128 182"/>
  <!-- Mouth: characteristic slight downturn at corners, neutral -->
  <path d="M104 194 Q124 198 144 194"/>
  <path d="M104 194 Q102 198 100 200"/>
  <path d="M144 194 Q146 198 148 200"/>
  <!-- Chin -->
  <path d="M110 208 Q124 214 138 208"/>
  <!-- Neck -->
  <path d="M104 216 L100 240"/>
  <path d="M144 216 L148 240"/>
  <!-- Blazer: signature notch lapels -->
  <path d="M70 268 L96 248 L124 256 L152 248 L178 268"/>
  <path d="M96 248 L106 270"/>
  <path d="M152 248 L142 270"/>
  <!-- Merkel-Raute: hands forming the diamond, abstracted -->
  <path d="M100 282 Q124 270 148 282"/>
  <path d="M100 282 Q124 296 148 282"/>
  <path d="M124 274 L124 290"/>
</svg>
