<?xml version="1.0" standalone="no"?>
<!DOCTYPE svg PUBLIC "-//W3C//DTD SVG 20010904//EN"
 "http://www.w3.org/TR/2001/REC-SVG-20010904/DTD/svg10.dtd">
<svg version="1.0" xmlns="http://www.w3.org/2000/svg"
 width="2279.000000pt" height="271.000000pt" viewBox="0 0 2279.000000 271.000000"
 preserveAspectRatio="xMidYMid meet">

<g transform="translate(0.000000,271.000000) scale(0.100000,-0.100000)"
fill="#000000" stroke="none">
<path d="M660 2691 c-383 -81 -660 -406 -660 -775 0 -300 111 -524 322 -652
91 -56 203 -91 405 -129 217 -40 295 -64 345 -105 72 -59 76 -165 10 -231
-116 -115 -292 0 -309 202 l-6 69 -383 0 -384 0 0 -500 0 -500 264 0 263 0 7
41 c7 45 60 109 90 109 29 0 79 -26 176 -92 135 -91 260 -128 436 -128 398 0
740 260 846 645 31 114 31 363 0 480 -61 225 -192 388 -387 481 -117 56 -265
83 -452 84 -137 0 -240 36 -269 92 -51 98 16 197 124 185 82 -9 123 -59 130
-159 l4 -58 394 0 394 0 0 445 0 445 -285 0 -284 0 -7 -52 c-5 -34 -15 -60
-30 -75 -36 -36 -33 -38 -175 71 -35 27 -87 59 -115 72 -122 54 -307 68 -464
35z"/>
<path d="M3155 2700 c-563 -88 -926 -547 -986 -1250 -52 -610 177 -1117 602
-1331 286 -144 668 -158 968 -35 328 133 575 461 661 878 87 424 28 893 -152
1213 -149 263 -361 430 -637 502 -76 19 -127 25 -246 28 -82 2 -177 0 -210 -5z
m212 -760 c67 -41 107 -174 124 -412 18 -267 -11 -572 -65 -675 -8 -15 -28
-41 -46 -58 -27 -26 -39 -30 -85 -30 -43 0 -59 5 -80 25 -81 75 -100 184 -100
565 0 321 10 412 57 511 42 89 121 119 195 74z"/>
<path d="M4480 2300 l0 -340 45 0 c58 0 106 -20 133 -55 22 -28 22 -29 22
-564 0 -295 5 -579 10 -632 18 -191 91 -343 221 -464 162 -150 390 -230 689
-242 562 -23 951 206 1035 609 12 56 15 182 16 651 0 424 3 591 12 616 16 46
55 73 116 79 l51 5 0 338 0 339 -495 0 -495 0 0 -339 0 -338 31 -7 c44 -8 87
-58 94 -109 3 -23 5 -242 3 -487 l-3 -445 -25 -49 c-32 -65 -66 -88 -133 -94
-72 -6 -128 22 -159 81 l-23 42 0 498 0 499 37 34 c22 20 48 34 63 34 l25 0 0
340 0 340 -635 0 -635 0 0 -340z"/>
<path d="M6937 2633 c-4 -3 -7 -269 -7 -590 l0 -583 270 0 270 0 0 178 c0 97
5 194 11 215 15 54 56 96 102 104 l38 6 -3 -546 c-3 -533 -3 -546 -24 -574
-26 -36 -79 -62 -143 -70 l-51 -6 0 -348 0 -349 685 0 685 0 0 349 0 348 -51
6 c-64 8 -117 34 -143 70 -21 28 -21 41 -24 573 l-2 544 29 0 c44 0 96 -49
110 -104 6 -25 11 -124 11 -220 l0 -176 270 0 270 0 0 590 0 590 -1148 0
c-632 0 -1152 -3 -1155 -7z"/>
<path d="M9340 2300 l0 -340 36 0 c49 0 102 -27 119 -61 22 -42 22 -1006 0
-1049 -21 -41 -60 -68 -111 -76 l-44 -6 0 -349 0 -349 620 0 620 0 0 348 0
347 -47 15 c-74 24 -83 50 -83 247 l0 163 175 0 175 0 0 -148 c0 -81 -4 -162
-10 -181 -13 -46 -46 -79 -87 -87 l-33 -6 0 -349 0 -349 620 0 620 0 0 350 0
350 -27 0 c-16 0 -47 9 -71 20 -33 15 -47 29 -62 62 -18 41 -20 69 -20 521 0
517 1 528 54 562 13 9 46 20 73 23 l48 7 0 335 0 335 -617 3 -618 2 0 -340 c0
-300 2 -340 15 -340 35 0 77 -33 96 -73 15 -34 19 -66 19 -159 l0 -118 -176 0
-176 0 4 141 3 141 37 34 c22 20 48 34 63 34 l25 0 0 340 0 340 -620 0 -620 0
0 -340z"/>
<path d="M12960 2296 l0 -334 43 -7 c56 -10 93 -30 114 -62 16 -25 18 -68 21
-486 2 -303 -1 -477 -8 -512 -15 -74 -75 -125 -146 -125 l-24 0 0 -350 0 -350
685 0 685 0 0 350 0 350 -84 0 c-70 0 -88 4 -117 23 -52 35 -64 67 -67 195
l-4 112 254 0 c139 0 294 5 343 10 376 42 593 218 660 535 20 92 20 317 1 417
-52 273 -227 460 -491 528 -142 36 -233 40 -1057 40 l-808 0 0 -334z m1321
-362 c47 -28 69 -64 78 -127 15 -112 -15 -218 -73 -260 -26 -18 -47 -23 -128
-25 l-98 -4 0 214 c0 118 3 218 8 222 14 16 179 0 213 -20z"/>
<path d="M15696 2622 c-2 -4 -16 -55 -31 -112 -128 -509 -423 -1586 -446
-1631 -32 -64 -105 -109 -176 -109 l-23 0 0 -350 0 -350 500 0 500 0 0 349 0
348 -40 6 c-90 12 -112 57 -88 180 l13 72 177 3 176 2 16 -71 c9 -39 16 -82
16 -94 0 -52 -66 -95 -147 -95 l-33 0 0 -350 0 -350 670 0 670 0 0 349 0 348
-38 7 c-46 7 -86 36 -108 78 -14 26 -176 614 -405 1465 l-84 313 -557 0 c-306
0 -559 -4 -562 -8z m447 -999 c26 -153 47 -284 47 -290 0 -10 -30 -13 -116
-13 -115 0 -116 0 -112 23 33 163 124 557 128 557 4 0 28 -125 53 -277z"/>
<path d="M17590 2297 l0 -334 59 -12 c71 -14 106 -48 116 -114 3 -23 5 -250 3
-504 -3 -448 -4 -462 -24 -489 -31 -43 -67 -65 -112 -71 l-42 -6 0 -348 0
-349 640 0 640 0 0 350 0 350 -37 0 c-48 0 -97 30 -120 72 -14 27 -17 59 -18
173 l0 140 81 0 c92 -1 123 -14 151 -68 15 -27 18 -74 24 -307 7 -310 19 -390
74 -506 79 -166 233 -244 477 -244 359 1 557 197 608 603 5 45 10 195 10 334
l0 253 -95 0 -95 0 0 -209 c0 -115 -3 -223 -6 -241 -8 -38 -29 -49 -52 -26
-14 13 -18 43 -22 144 -5 113 -9 134 -33 184 -30 61 -88 120 -158 161 -52 31
-177 67 -234 68 -80 1 -83 16 -5 23 263 25 426 144 497 364 35 105 43 304 19
416 -56 250 -256 432 -556 502 -68 16 -156 18 -932 21 l-858 4 0 -334z m1285
-348 c21 -6 53 -25 71 -43 80 -80 62 -294 -29 -360 -23 -17 -47 -22 -128 -24
l-99 -4 0 214 c0 118 3 218 7 221 10 11 134 8 178 -4z"/>
<path d="M20230 2296 l0 -333 58 -12 c66 -13 97 -38 112 -92 14 -48 13 -923
-1 -974 -18 -66 -79 -115 -144 -115 l-25 0 0 -350 0 -350 615 0 615 0 0 349 0
349 -33 6 c-67 13 -96 76 -97 211 l0 70 73 57 72 57 84 -167 c78 -157 83 -168
70 -192 -8 -14 -29 -29 -47 -35 l-32 -9 0 -348 0 -348 620 0 620 0 0 349 0
348 -39 7 c-22 3 -51 16 -64 29 -24 22 -470 923 -465 938 2 5 30 31 62 58 95
80 220 138 339 156 l37 6 0 334 0 335 -555 0 -555 0 0 -335 0 -335 25 -10 c29
-11 33 -44 9 -78 -14 -21 -206 -156 -239 -169 -12 -4 -15 6 -15 53 1 116 36
185 101 198 l29 6 0 335 0 335 -615 0 -615 0 0 -334z"/>
</g>
</svg>
